# xmcd
#
# Track frame offsets:
#	150
#	13313
#	23921
#	31591
#	44223
#	52892
#	61680
#	69103
#	79737
#	93476
#	105295
#	113333
#	120589
#	130586
#	141490
#	150874
#	167005
#	175911
#	185187
#	194009
#	200235
#	212417
#
# Disc length: 3010 seconds
#
# Revision: 1
# Processed by: cddbd v1.4PL0 Copyright (c) Steve Scherf et al.
# Submitted via: audiograbber 1.80
#
DISCID=260bc016
DTITLE=Delmiro Barros - Ao vivo
DYEAR=1900
DGENRE=
TTITLE0=Pedindo pra voltar
TTITLE1=Chora nega
TTITLE2=Gosto de todas
TTITLE3=Vamos comigo
TTITLE4=Chuva de saudade
TTITLE5=O vaqueiro e o cantador
TTITLE6=Quero ela
TTITLE7=Não me deixar
TTITLE8=Bandeira do sertão
TTITLE9=Meu canário
TTITLE10=Eu e ela
TTITLE11=Dero meu
TTITLE12=Diga se valeu
TTITLE13=Forró e vaneirão
TTITLE14=Festa que eu gosto
TTITLE15=Seu doutor
TTITLE16=Povo de gado
TTITLE17=No pé da serra
TTITLE18=Meu bem querer
TTITLE19=Meu sertão
TTITLE20=Boi de carro
TTITLE21=Alforria ao boi de carro
EXTD=
EXTT0=
EXTT1=
EXTT2=
EXTT3=
EXTT4=
EXTT5=
EXTT6=
EXTT7=
EXTT8=
EXTT9=
EXTT10=
EXTT11=
EXTT12=
EXTT13=
EXTT14=
EXTT15=
EXTT16=
EXTT17=
EXTT18=
EXTT19=
EXTT20=
EXTT21=
PLAYORDER=
